<svg xmlns="http://www.w3.org/2000/svg" viewBox="0 0 50 50.24"><defs><style>.cls-1{fill:#fff;}.cls-2{fill:#3f3d56;}.cls-3{fill:#00bfa6;}.cls-4{isolation:isolate;opacity:0.2;}.cls-5{fill:#e6e6e6;}.cls-6{fill:#ff6584;}</style></defs><g id="Layer_2" data-name="Layer 2"><g id="Layer_1-2" data-name="Layer 1"><rect class="cls-1" x="35.96" y="9.9" width="2.08" height="0.38" transform="translate(11.38 38.64) rotate(-63.36)"/><rect class="cls-2" x="42.47" y="10.57" width="0.36" height="1.95"/><rect class="cls-1" x="42.26" y="15.27" width="0.36" height="1.95"/><path class="cls-3" d="M47.1,13.59A25,25,0,1,0,50,25.27,25,25,0,0,0,47.1,13.59Zm-17,20.69a10.36,10.36,0,1,1,5.26-9,10.35,10.35,0,0,1-5.26,9Z"/><path class="cls-4" d="M25,48.64A25,25,0,0,1,0,24.45c0,.27,0,.54,0,.82a25,25,0,0,0,49.93,0c0-.28,0-.55,0-.82A25,25,0,0,1,25,48.64Z"/><path class="cls-4" d="M25,12.81A12.46,12.46,0,1,0,37.49,25.27,12.46,12.46,0,0,0,25,12.81Zm5.08,21.47a10.36,10.36,0,1,1,5.26-9A10.35,10.35,0,0,1,30.12,34.28Z"/><path class="cls-5" d="M47.11,13.29v4.15a1.52,1.52,0,0,1-2.62,1V19a1.81,1.81,0,0,1-3.61,0h0v-.4a1.51,1.51,0,0,1-2.53-1.13L38.28,13V12a.61.61,0,0,0-.62-.61.61.61,0,0,0-.61.61v1L37,16.72a1.53,1.53,0,0,1-1.53,1.52,1.52,1.52,0,0,1-1.51-1.52L33.75,13V11.14a1,1,0,0,0-1-1,1,1,0,0,0-1,1V13l-.11,3.69a1.52,1.52,0,0,1-1.52,1.52,1.54,1.54,0,0,1-1.19-.58,1.53,1.53,0,0,1-2.08.3v1a1.8,1.8,0,1,1-3.6,0h0V15.85a1.52,1.52,0,0,1-2.91.62V19a1.81,1.81,0,0,1-3.61,0V13h0V19a1.8,1.8,0,0,1-3.6,0V16.49a1.52,1.52,0,0,1-2.9-.64V13h-.15V18.1a1.81,1.81,0,0,1-3.61,0h0V15.85a1.52,1.52,0,0,1-3,0h0V12.51a25,25,0,0,1,43.71.78Z"/><path class="cls-4" d="M14.9,19.9a1.79,1.79,0,0,1-1.8-1.8h0V19a1.8,1.8,0,0,0,3.6,0V18.1a1.8,1.8,0,0,1-1.8,1.8Z"/><path class="cls-4" d="M18.52,19.9a1.8,1.8,0,0,1-1.81-1.8h0V19a1.81,1.81,0,0,0,3.61,0V18.1a1.8,1.8,0,0,1-1.8,1.8Z"/><path class="cls-4" d="M13.1,15.63A1.52,1.52,0,0,1,10.2,15v.94a1.52,1.52,0,0,0,2.9.65Z"/><rect class="cls-4" x="16.7" y="12.16" width="0.01" height="0.94"/><path class="cls-4" d="M6.44,15a1.52,1.52,0,0,1-3,0v.94a1.52,1.52,0,0,0,3,0Z"/><rect class="cls-4" x="10.05" y="12.16" width="0.15" height="0.94"/><path class="cls-4" d="M8.24,19a1.8,1.8,0,0,1-1.8-1.8h0v.94a1.81,1.81,0,1,0,3.61,0h0v-.94A1.8,1.8,0,0,1,8.24,19Z"/><path class="cls-4" d="M25,19.9a1.79,1.79,0,0,1-1.8-1.8h0V19a1.8,1.8,0,1,0,3.6,0V18.1A1.8,1.8,0,0,1,25,19.9Z"/><path class="cls-4" d="M38.28,11.14a.61.61,0,0,0-.62-.61.61.61,0,0,0-.61.61v.94a.61.61,0,0,1,.61-.61.61.61,0,0,1,.62.61h0Z"/><path class="cls-4" d="M23.23,15a1.52,1.52,0,0,1-2.91.63v.94a1.52,1.52,0,0,0,2.91-.63Z"/><path class="cls-4" d="M35.46,17.37a1.52,1.52,0,0,1-1.52-1.52h0l-.19-3.69v.94l.19,3.69a1.52,1.52,0,1,0,3,0l.07-3.69v-.94L37,15.85a1.53,1.53,0,0,1-1.52,1.52Z"/><path class="cls-4" d="M45.59,18.09a1.55,1.55,0,0,1-1.1-.46v.47a1.81,1.81,0,0,1-3.61,0h0v-.4a1.51,1.51,0,0,1-2.53-1.13l-.07-4.41v.94l.07,4.41a1.52,1.52,0,0,0,2.53,1.14V19a1.81,1.81,0,0,0,3.61,0h0v-.47a1.53,1.53,0,0,0,2.15,0,1.5,1.5,0,0,0,.47-1.1v-.94a1.52,1.52,0,0,1-1.52,1.52Z"/><path class="cls-4" d="M30.1,17.37a1.48,1.48,0,0,1-1.19-.58,1.52,1.52,0,0,1-2.08.3V18a1.52,1.52,0,0,0,2.08-.3,1.52,1.52,0,0,0,2.71-.94l.11-3.69v-.94l-.11,3.69a1.52,1.52,0,0,1-1.52,1.52Z"/><path class="cls-4" d="M33.75,10.27a1,1,0,1,0-2,0h0v.94a1,1,0,0,1,2,0h0Z"/><rect class="cls-2" x="16.53" y="10.46" width="0.36" height="1.95"/><rect class="cls-2" x="23.37" y="9.41" width="0.36" height="1.95"/><rect class="cls-2" x="14.69" y="17.08" width="0.36" height="1.95"/><rect class="cls-2" x="28.15" y="14.19" width="1.95" height="0.36" transform="matrix(0.57, -0.82, 0.82, 0.57, 0.74, 30.14)"/><rect class="cls-2" x="11.14" y="10.35" width="0.36" height="1.95" transform="translate(-4.59 13.18) rotate(-51.65)"/><rect class="cls-2" x="32.42" y="3.04" width="0.36" height="1.95" transform="translate(9.22 27.09) rotate(-51.65)"/><rect class="cls-2" x="7.16" y="12.38" width="0.36" height="1.95" transform="translate(-7.69 10.83) rotate(-51.65)"/><rect class="cls-1" x="17.87" y="5.87" width="0.36" height="1.95"/><rect class="cls-1" x="7.96" y="15.92" width="0.36" height="1.95"/><rect class="cls-1" x="24.89" y="3.04" width="0.36" height="1.95"/><rect class="cls-1" x="25.69" y="10.5" width="1.95" height="0.36" transform="translate(5.16 29.72) rotate(-63.36)"/><rect class="cls-1" x="24.02" y="17.73" width="1.95" height="0.36" transform="translate(-2.22 32.22) rotate(-63.36)"/><rect class="cls-1" x="21.06" y="12.96" width="0.36" height="1.95" transform="translate(-3.28 20.58) rotate(-48.44)"/><rect class="cls-1" x="13.89" y="4.49" width="0.36" height="1.95" transform="translate(0.65 12.37) rotate(-48.44)"/><rect class="cls-1" x="37.7" y="7.75" width="0.36" height="1.95" transform="translate(6.22 31.28) rotate(-48.44)"/><rect class="cls-1" x="28.94" y="1.38" width="0.36" height="1.95" transform="translate(8.04 22.59) rotate(-48.44)"/><rect class="cls-6" x="20.62" y="9.41" width="0.36" height="1.95"/><rect class="cls-6" x="39.87" y="11.29" width="1.95" height="0.36" transform="translate(14.32 44.59) rotate(-67)"/><rect class="cls-6" x="13.89" y="12.52" width="0.36" height="1.95" transform="translate(-4.86 8.85) rotate(-30)"/><rect class="cls-6" x="34.59" y="11.15" width="0.36" height="1.95" transform="translate(-1.4 19.01) rotate(-30)"/><rect class="cls-6" x="21.71" y="3.98" width="0.36" height="1.95" transform="translate(0.45 11.61) rotate(-30)"/><rect class="cls-6" x="37.05" y="3.62" width="0.36" height="1.95" transform="translate(2.69 19.23) rotate(-30)"/><rect class="cls-6" x="17.15" y="2.03" width="0.36" height="1.95" transform="translate(0.82 9.07) rotate(-30)"/><rect class="cls-6" x="29.67" y="5.5" width="0.36" height="1.95"/><rect class="cls-6" x="8.83" y="8.76" width="0.36" height="1.95"/></g></g></svg>